<svg width="60" height="59" viewBox="0 0 60 59" fill="none" xmlns="http://www.w3.org/2000/svg">
<path d="M46.1401 19.9756C47.4809 21.5046 48.5765 23.2283 49.3886 25.0864C50.4163 27.4433 50.9485 29.9826 50.9529 32.5496V32.5963C50.9529 37.31 49.2026 41.6417 46.2752 45.0619" stroke="black" stroke-width="5" stroke-linecap="round" stroke-linejoin="round"/>
<path d="M45.6688 25.9916L47.2 21.1506L51.7847 18.8813L40.2114 15.2632L45.6688 25.9916Z" fill="black"/>
<path d="M9.07373 25.0651C9.83156 23.3061 10.8439 21.6656 12.0788 20.195C13.8258 18.1159 15.9611 16.3892 18.368 15.1094C21.6573 13.3611 25.3349 12.4512 29.0686 12.462C29.9934 12.462 30.9174 12.5172 31.8355 12.6272" stroke="black" stroke-width="5" stroke-linecap="round" stroke-linejoin="round"/>
<path d="M14.7275 22.7514L9.67397 23.5999L5.54785 20.5894L7.54913 32.4373L14.7275 22.7514Z" fill="black"/>
<path d="M9.05615 40.0859C10.8523 44.3029 14.1453 47.8165 18.3237 50.0605C20.6233 51.2928 23.1244 52.1143 25.7122 52.4873C28.0282 52.8243 30.3824 52.8111 32.6944 52.4482" stroke="black" stroke-width="5" stroke-linecap="round" stroke-linejoin="round"/>
<path d="M30.6142 57.7596L31.1288 52.7131L27.8154 48.8428L39.8944 50.019L30.6142 57.7596Z" fill="black"/>
<g clip-path="url(#clip0)">
<path d="M25.8163 45.0475C25.6348 45.0478 25.455 45.0126 25.2873 44.9439C25.1196 44.8752 24.9674 44.7744 24.8393 44.6472L15.3044 35.2209C15.0527 34.9633 14.9134 34.6182 14.9166 34.26C14.9197 33.9018 15.065 33.5592 15.3212 33.3059C15.5775 33.0526 15.924 32.9089 16.2864 32.9058C16.6487 32.9027 16.9977 33.0404 17.2584 33.2892L26.7932 42.7155C26.9864 42.9065 27.118 43.1499 27.1713 43.4149C27.2246 43.6799 27.1972 43.9545 27.0927 44.2041C26.9881 44.4537 26.811 44.667 26.5838 44.8171C26.3566 44.9673 26.0895 45.0474 25.8163 45.0475Z" fill="#009245"/>
<path d="M25.9546 45.0476C25.7062 45.0474 25.4624 44.9811 25.249 44.8555C25.0355 44.7299 24.8602 44.5498 24.7416 44.3341C24.6229 44.1184 24.5653 43.875 24.5747 43.6296C24.5842 43.3842 24.6603 43.1459 24.7952 42.9397L38.1302 22.5503C38.227 22.3958 38.3539 22.262 38.5036 22.1566C38.6533 22.0512 38.8227 21.9764 39.002 21.9366C39.1813 21.8967 39.3668 21.8926 39.5478 21.9245C39.7287 21.9564 39.9013 22.0237 40.0556 22.1224C40.2099 22.221 40.3428 22.3491 40.4464 22.4992C40.55 22.6492 40.6223 22.8182 40.6591 22.9962C40.6958 23.1742 40.6963 23.3577 40.6605 23.5358C40.6246 23.714 40.5532 23.8834 40.4504 24.0339L27.1154 44.4233C26.99 44.6149 26.8181 44.7725 26.6153 44.8815C26.4126 44.9906 26.1854 45.0477 25.9546 45.0476V45.0476Z" fill="#009245"/>
</g>
<defs>
<clipPath id="clip0">
<rect width="25.7718" height="23.1216" fill="white" transform="translate(14.8994 21.9258)"/>
</clipPath>
</defs>
</svg>
